<?xml version="1.0" encoding="utf-8"?>
<!-- Uploaded to: SVG Repo, www.svgrepo.com, Generator: SVG Repo Mixer Tools -->
<svg fill="#000000" width="800px" height="800px" viewBox="0 0 32 32" version="1.1" xmlns="http://www.w3.org/2000/svg">
<title>codecademy</title>
<path d="M9.742 14.998c0.046-0.004 0.1-0.006 0.154-0.006 0.645 0 1.219 0.304 1.587 0.776l0.003 0.005c0.036 0.052 0.096 0.086 0.164 0.086 0.047 0 0.090-0.016 0.124-0.043l-0 0 1.292-1.15c0.094-0.055 0.072-0.205 0.025-0.28-0.793-0.954-1.98-1.556-3.308-1.556-0.041 0-0.082 0.001-0.122 0.002l0.006-0c-0.079-0.006-0.171-0.009-0.263-0.009-1.768 0-3.268 1.147-3.796 2.737l-0.008 0.028c-0.194 0.653-0.306 1.403-0.306 2.179 0 0.104 0.002 0.207 0.006 0.31l-0-0.015c-0.004 0.093-0.007 0.202-0.007 0.312 0 0.772 0.119 1.515 0.34 2.214l-0.014-0.052c0.529 1.617 2.025 2.764 3.788 2.764 0.098 0 0.196-0.004 0.293-0.011l-0.013 0.001c0.037 0.001 0.080 0.002 0.124 0.002 1.32 0 2.503-0.588 3.302-1.516l0.005-0.006c0.030-0.035 0.047-0.081 0.047-0.131 0-0.060-0.025-0.113-0.066-0.151l-0-0-1.296-1.143c-0.034-0.026-0.076-0.041-0.123-0.041-0.063 0-0.12 0.029-0.157 0.075l-0 0c-0.404 0.527-1.034 0.864-1.742 0.864-0.026 0-0.053-0-0.079-0.001l0.004 0c-0.033 0.002-0.072 0.003-0.11 0.003-0.814 0-1.502-0.541-1.723-1.284l-0.003-0.013c-0.136-0.468-0.215-1.005-0.215-1.56 0-0.103 0.003-0.206 0.008-0.307l-0.001 0.014c-0.003-0.070-0.005-0.153-0.005-0.235 0-0.571 0.084-1.122 0.24-1.642l-0.010 0.040c0.249-0.74 0.936-1.263 1.745-1.263 0.039 0 0.078 0.001 0.117 0.004l-0.005-0zM3.276 25.464c-0 0.004-0 0.009-0 0.014 0 0.080 0.049 0.148 0.119 0.176l0.001 0h15.799c0.071-0.028 0.121-0.096 0.121-0.176 0-0.006-0-0.012-0.001-0.017l0 0.001v-18.956c0-0.004 0-0.009 0-0.014 0-0.080-0.051-0.148-0.122-0.173l-0.001-0h-15.796c-0.071 0.028-0.12 0.095-0.12 0.175 0 0.004 0 0.009 0 0.013l-0-0.001-0.004 18.957zM21.577 4.082c0.020 0.041 0.040 0.091 0.056 0.142l0.002 0.008v23.481c0 0.004 0 0.008 0 0.013 0 0.049-0.018 0.095-0.047 0.13l0-0c-0.039 0.046-0.096 0.075-0.161 0.075-0.003 0-0.005-0-0.008-0h-20.225c-0.008 0.001-0.017 0.002-0.026 0.002-0.035 0-0.068-0.010-0.096-0.027l0.001 0c-0.043-0.041-0.070-0.099-0.070-0.164 0-0.001 0-0.003 0-0.004v0-23.529c-0-0.004-0.001-0.010-0.001-0.015 0-0.079 0.050-0.146 0.119-0.172l0.001-0h20.297c0.053 0 0.103 0.016 0.145 0.043l-0.001-0.001v0.020zM30.779 25.658h-6.992c-0.004-0-0.008-0-0.013-0-0.11 0-0.2 0.090-0.2 0.2 0 0.005 0 0.011 0.001 0.016l-0-0.001v1.893c-0 0.004-0 0.008-0 0.013 0 0.11 0.090 0.2 0.2 0.2 0.005 0 0.011-0 0.016-0.001l-0.001 0h6.99c0.008 0.001 0.017 0.002 0.026 0.002 0.105 0 0.189-0.085 0.189-0.189 0-0.006-0-0.012-0.001-0.018l0 0.001v-1.893c0.001-0.006 0.001-0.013 0.001-0.020 0-0.105-0.085-0.19-0.19-0.19-0.010 0-0.019 0.001-0.028 0.002l0.001-0v-0.015z"></path>
</svg>