<?xml version="1.0" encoding="UTF-8" standalone="no"?>
<svg
   width="50px"
   height="50px"
   viewBox="0 0 50 50"
   version="1.1"
   id="svg1"
   sodipodi:docname="colorHunt.svg"
   inkscape:version="1.3 (0e150ed6c4, 2023-07-21)"
   xmlns:inkscape="http://www.inkscape.org/namespaces/inkscape"
   xmlns:sodipodi="http://sodipodi.sourceforge.net/DTD/sodipodi-0.dtd"
   xmlns="http://www.w3.org/2000/svg"
   xmlns:svg="http://www.w3.org/2000/svg">
  <defs
     id="defs1" />
  <sodipodi:namedview
     id="namedview1"
     pagecolor="#ffffff"
     bordercolor="#000000"
     borderopacity="0.25"
     inkscape:showpageshadow="2"
     inkscape:pageopacity="0.0"
     inkscape:pagecheckerboard="0"
     inkscape:deskcolor="#d1d1d1"
     inkscape:zoom="15.54"
     inkscape:cx="24.967825"
     inkscape:cy="25"
     inkscape:window-width="1920"
     inkscape:window-height="991"
     inkscape:window-x="-9"
     inkscape:window-y="-9"
     inkscape:window-maximized="1"
     inkscape:current-layer="svg1" />
  <title
     id="title1">colorhunt-logo-face</title>
  <g
     id="colorhunt-logo-tongue"
     stroke="none"
     stroke-width="1"
     fill="none"
     fill-rule="evenodd"
     transform="translate(-0.24072219,-0.40966795)">
    <g
       id="Group-14-4"
       transform="translate(14,17)">
      <path
         d="m 12.21171,20.981073 c 4.536429,0 8.227129,-3.690701 8.227129,-8.22713 V 12.515407 H 3.9845804 v 0.238536 c 0,4.536429 3.6907004,8.22713 8.2271296,8.22713"
         id="Fill-1"
         fill="#924992" />
      <path
         d="M 20.438839,8.0737363 H 3.9845804 v 4.6801767 c 0,1.794423 0.5791294,3.455091 1.5579054,4.808782 H 18.880934 c 0.978877,-1.353691 1.557905,-3.014359 1.557905,-4.808782 z"
         id="Fill-3"
         fill="#ff6868" />
      <path
         d="M 3.9845804,0.94318738 V 11.606859 H 20.438839 V 0.94318738 c -1.828469,0 -7.313222,0 -16.4542586,0 z"
         id="Fill-5"
         fill="#feed30" />
      <g
         id="Group-9-1"
         transform="translate(0,0.451104)"
         fill="#111111">
        <path
           d="m 19.126536,12.302839 c 0,4.536429 -3.6907,8.227129 -8.227129,8.227129 -4.5364291,0 -8.2271294,-3.6907 -8.2271294,-8.227129 V 0.65332492 L 19.126536,0.67452366 Z M 0.04767192,0.0126183 V 12.302839 c 0,5.983596 4.86803788,10.851735 10.85173508,10.851735 5.983596,0 10.851735,-4.868139 10.851735,-10.851735 V 0.04058044 Z"
           id="Fill-7" />
      </g>
    </g>
  </g>
  <g
     id="colorhunt-logo-face"
     stroke="none"
     stroke-width="1"
     fill="none"
     fill-rule="evenodd">
    <g
       id="Group-14"
       transform="translate(9.000000, 8.000000)"
       fill="#111111">
      <g
         id="Group-9"
         transform="translate(0.000000, 5.451104)">
        <path
           d="M30.0950915,0.137388013 C30.7667886,-0.134460568 31.5319621,0.190082019 31.8037098,0.862082019 C32.0753565,1.53388013 31.7509148,2.29885174 31.0791167,2.57059937 C29.9435912,3.02978423 28.7923664,3.43502334 27.6274065,3.78678188 L26.751142,4.04058044 L24.1265363,4.67452366 C21.454082,5.2244795 18.7215647,5.50157729 15.9498801,5.50157729 C13.4238385,5.50157729 10.9305035,5.27115912 8.48547614,4.81407586 L7.7789752,4.67427216 L7.6722776,4.67452366 L5.04767192,4.0126183 C3.61756467,3.61196215 2.20744479,3.13135647 0.820643533,2.57059937 C0.148744479,2.29885174 -0.175697161,1.53388013 0.0960504732,0.862082019 C0.367798107,0.190082019 1.13276972,-0.134460568 1.80466877,0.137388013 C6.29991167,1.95523028 11.0590284,2.87697161 15.9498801,2.87697161 C20.8407319,2.87697161 25.5998486,1.95523028 30.0950915,0.137388013 Z"
           id="Path" />
      </g>
      <path
         d="M7.01612618,4.03785489 C8.13117981,4.03785489 9.03505363,3.13398107 9.03505363,2.01892744 C9.03505363,0.903873817 8.13117981,0 7.01612618,0 C5.90107256,0 4.99719874,0.903873817 4.99719874,2.01892744 C4.99719874,3.13398107 5.90107256,4.03785489 7.01612618,4.03785489"
         id="Fill-10" />
      <path
         d="M24.8836341,4.03785489 C25.9986877,4.03785489 26.9025615,3.13398107 26.9025615,2.01892744 C26.9025615,0.903873817 25.9986877,0 24.8836341,0 C23.7685804,0 22.8647066,0.903873817 22.8647066,2.01892744 C22.8647066,3.13398107 23.7685804,4.03785489 24.8836341,4.03785489"
         id="Fill-12" />
    </g>
  </g>
</svg>
