<?xml version="1.0" encoding="UTF-8" standalone="no"?>
<!-- Uploaded to: SVG Repo, www.svgrepo.com, Generator: SVG Repo Mixer Tools -->

<svg
   width="800px"
   height="800px"
   viewBox="0 0 17 17"
   version="1.1"
   id="svg1"
   sodipodi:docname="githubEducation.svg"
   inkscape:version="1.3 (0e150ed6c4, 2023-07-21)"
   xmlns:inkscape="http://www.inkscape.org/namespaces/inkscape"
   xmlns:sodipodi="http://sodipodi.sourceforge.net/DTD/sodipodi-0.dtd"
   xmlns="http://www.w3.org/2000/svg"
   xmlns:svg="http://www.w3.org/2000/svg">
  <defs
     id="defs1" />
  <sodipodi:namedview
     id="namedview1"
     pagecolor="#ffffff"
     bordercolor="#000000"
     borderopacity="0.25"
     inkscape:showpageshadow="2"
     inkscape:pageopacity="0.0"
     inkscape:pagecheckerboard="0"
     inkscape:deskcolor="#d1d1d1"
     inkscape:zoom="0.97125"
     inkscape:cx="451.99485"
     inkscape:cy="415.44402"
     inkscape:window-width="1920"
     inkscape:window-height="991"
     inkscape:window-x="-9"
     inkscape:window-y="-9"
     inkscape:window-maximized="1"
     inkscape:current-layer="svg1" />
  <path
     d="m 12.390455,12.94481 c 0,0.633194 -0.330179,1.665319 -1.110214,1.665319 -0.780885,0 -1.111063,-1.032125 -1.111063,-1.665319 0,-0.632348 0.330178,-1.665321 1.111063,-1.665321 0.780035,0 1.110214,1.032973 1.110214,1.665321 z M 5.7308689,11.279489 c -0.7800356,0 -1.1102138,1.032973 -1.1102138,1.665321 0,0.633194 0.3301782,1.665319 1.1102138,1.665319 0.7800355,0 1.1102138,-1.032125 1.1102138,-1.665319 0,-0.632348 -0.3301783,-1.665321 -1.1102138,-1.665321 z m 9.9893781,0.139201 c 0,0.963373 -0.09507,1.986162 -0.528793,2.870598 -1.145015,2.315492 -4.292319,2.540421 -6.5466981,2.540421 -2.2891795,0 -5.6274601,-0.198616 -6.8157624,-2.540421 C 1.3859264,13.41334 1.2908623,12.382063 1.2908623,11.41869 c 0,-1.26639 0.3471541,-2.4623322 1.1798145,-3.433345 C 2.3144999,7.5083265 2.2364115,7.0049956 2.2364115,6.5101527 c 0,-0.6501712 0.1468401,-1.2994935 0.442218,-1.8902496 1.3699429,0 2.2458913,0.5983953 3.2865047,1.413231 C 6.8410827,5.8251812 7.7424949,5.730117 8.6447559,5.730117 c 0.8148363,0 1.6390081,0.087425 2.4283801,0.2775536 1.032127,-0.806348 1.907227,-1.3877675 3.260194,-1.3877675 0.295378,0.5899073 0.442217,1.2400784 0.442217,1.8902496 0,0.4948429 -0.07809,0.9888372 -0.234264,1.4573678 0.83266,0.9795006 1.178964,2.1847795 1.178964,3.4511695 z m -1.942873,1.52612 c 0,-1.326656 -0.8055,-2.497133 -2.21958,-2.497133 -0.572083,0 -1.117853,0.104409 -1.6907843,0.182489 -0.4507065,0.0696 -0.9014123,0.09507 -1.361455,0.09507 -0.4600427,0 -0.9107488,-0.02547 -1.3614549,-0.09507 -0.5635948,-0.07809 -1.1187016,-0.182489 -1.6907843,-0.182489 -1.413231,0 -2.219579,1.170477 -2.219579,2.497133 0,2.653308 2.4275319,3.060726 4.5435587,3.060726 h 1.4573674 c 2.1160274,8.49e-4 4.5427114,-0.407418 4.5427114,-3.060726 z"
     fill="#000000"
     id="path1"
     style="stroke-width:0.848787" />
  <path
     d="M 8.9250511,5.6176452 12.252014,4.3694201 v 3.0566771 c 0,0.658513 -1.582397,1.19417 -3.5382767,1.19417 -1.95588,0 -3.5382761,-0.535657 -3.5382761,-1.19417 V 4.3694201 l 3.3367908,1.2482251 0.2064,0.078629 z M 8.718652,5.0672473 15.004006,2.7083961 8.718652,0.34954483 2.4234681,2.7083961 3.4063228,3.076966 V 7.0968415 C 3.175352,7.2049586 3.0131809,7.4457552 3.0131809,7.7209538 V 9.391807 H 4.3891775 V 7.7209538 c 0,-0.2801125 -0.1621709,-0.520913 -0.3980565,-0.6290262 V 3.2931945 Z"
     id="path1-0"
     style="fill:#2a2a2a;fill-opacity:1;stroke-width:0.0491428" />
</svg>
