<svg xmlns="http://www.w3.org/2000/svg" width="24" height="24" viewBox="0 0 24 24"><path d="M14.062 6.375c0-.724.588-1.313 1.312-1.313s1.312.589 1.312 1.313-.586 1.313-1.311 1.313-1.313-.589-1.313-1.313zm9.938-1.375v14c0 2.761-2.238 5-5 5h-14c-2.761 0-5-2.239-5-5v-14c0-2.761 2.239-5 5-5h14c2.762 0 5 2.239 5 5zm-12 1.375c0 1.86 1.514 3.375 3.375 3.375 1.86 0 3.375-1.515 3.375-3.375s-1.515-3.375-3.375-3.375c-1.861 0-3.375 1.515-3.375 3.375zm-5.186 0l-1.564 1.564 1.06 1.061 1.564-1.564 1.565 1.564 1.062-1.06-1.565-1.565 1.564-1.564-1.061-1.061-1.564 1.565-1.565-1.565-1.06 1.06 1.564 1.565zm11.936 12.894c0-.404-.137-.834-.445-1.234-1.141-1.48-1.805-2.277-1.805-2.277h-5.25s1.905 2.316 3.017 3.708c.872 1.09 1.518 1.534 2.596 1.534 1.057 0 1.887-.799 1.887-1.731zm2.25-4.269c0-2.072-1.679-3.751-3.75-3.751h-10.5c-2.071.001-3.75 1.679-3.75 3.751 0 2.071 1.679 3.75 3.75 3.75h4.605c-.857-1.054-2.458-3-2.458-3h-2.147c-.414 0-.75-.336-.75-.75s.336-.75.749-.75h9.96c.669 0 1.05.186 1.472.718.721.909 1.879 2.373 1.922 2.438.551-.652.897-1.485.897-2.406z"/></svg>